<svg id="SvgjsSvg1029" width="288" height="288" xmlns="http://www.w3.org/2000/svg" version="1.1" xmlns:xlink="http://www.w3.org/1999/xlink" xmlns:svgjs="http://svgjs.com/svgjs"><defs id="SvgjsDefs1030"></defs><g id="SvgjsG1031" transform="matrix(1,0,0,1,0,0)"><svg xmlns="http://www.w3.org/2000/svg" enable-background="new 0 0 60 60" viewBox="0 0 60 60" width="288" height="288"><path fill="#36034a" d="M44.82,50.27l-3.49-4.36c-5.55,1.45-11.11,1.45-16.66,0l-3.49,4.36C7.68,48.29,9,43,9,43c0-16,6-24,6-24
		s3.62-2.4,10.84-3.48l1.29,3.86C28.86,19.15,30.82,19,33,19s4.14,0.15,5.87,0.38l1.29-3.86C47.38,16.6,51,19,51,19s6,8,6,24
		C57,43,58.32,48.29,44.82,50.27z" class="svgShape colord2bbff-1 selectable"></path><path fill="#fcc222" d="M18.18 48.77c-.072 0-.145-.005-.218-.016C11.44 47.798 7.21 45.933 5.387 43.212c-.993-1.483-.959-2.793-.887-3.332.029-16.233 6.043-24.438 6.3-24.781.103-.137.229-.256.371-.35.159-.106 3.983-2.597 11.447-3.713.716-.113 1.413.318 1.645 1.008l1.29 3.86c.263.786-.162 1.636-.947 1.898-.789.264-1.636-.162-1.898-.947l-.885-2.647c-5.017.911-7.966 2.447-8.771 2.909C12.151 18.477 7.5 26.176 7.5 40c0 .123-.015.245-.045.363 0 0 .001-.001.001-.001.005 0-.077.791.951 1.811 1.104 1.096 3.584 2.563 9.145 3.481l2.947-3.682c.518-.648 1.463-.751 2.108-.233.646.518.751 1.461.233 2.108l-3.49 4.36C19.063 48.566 18.631 48.77 18.18 48.77zM41.82 48.77c-.452 0-.884-.204-1.171-.562l-3.49-4.36c-.518-.647-.413-1.591.233-2.108.646-.517 1.592-.414 2.108.233l2.947 3.682c5.561-.917 8.04-2.385 9.145-3.481 1.047-1.039.943-1.84.938-1.874C52.501 40.181 52.5 40.123 52.5 40c0-13.898-4.643-21.526-5.548-22.881-.796-.457-3.746-1.998-8.774-2.911l-.885 2.647c-.263.785-1.111 1.209-1.898.947-.785-.263-1.21-1.113-.947-1.898l1.29-3.86c.23-.69.922-1.12 1.645-1.008 7.464 1.116 11.288 3.607 11.447 3.713.143.094.269.213.371.35.257.342 6.271 8.548 6.3 24.781.072.539.106 1.849-.887 3.332-1.823 2.721-6.054 4.585-12.575 5.542C41.965 48.765 41.893 48.77 41.82 48.77z" class="svgShape color7d40f4-2 selectable"></path><circle cx="22" cy="32" r="4" fill="#fbf5eb" class="svgShape colorffffff-3 selectable"></circle><path fill="#6e5d88" d="M22,36.75c-2.619,0-4.75-2.131-4.75-4.75s2.131-4.75,4.75-4.75s4.75,2.131,4.75,4.75
			S24.619,36.75,22,36.75z M22,28.75c-1.792,0-3.25,1.458-3.25,3.25s1.458,3.25,3.25,3.25s3.25-1.458,3.25-3.25
			S23.792,28.75,22,28.75z" class="svgShape color7d40f4-4 selectable"></path><circle cx="38" cy="32" r="4" fill="#fbf5eb" class="svgShape colorffffff-5 selectable"></circle><path fill="#6e5d88" d="M38,36.75c-2.619,0-4.75-2.131-4.75-4.75s2.131-4.75,4.75-4.75s4.75,2.131,4.75,4.75
			S40.619,36.75,38,36.75z M38,28.75c-1.792,0-3.25,1.458-3.25,3.25s1.458,3.25,3.25,3.25s3.25-1.458,3.25-3.25
			S39.792,28.75,38,28.75z" class="svgShape color7d40f4-6 selectable"></path><ellipse cx="24.298" cy="17.231" fill="#36034a" rx="1.702" ry=".705" class="svgShape colord2bbff-7 selectable"></ellipse><ellipse cx="35.596" cy="17.231" fill="#fbf5eb" rx="1.702" ry=".705" class="svgShape colorffffff-8 selectable"></ellipse><path fill="#fcc222" d="M45.184,19.756c-0.113,0-0.229-0.026-0.338-0.081C43.107,18.795,38.18,16.75,30,16.75
		c-8.177,0-13.104,2.042-14.842,2.92c-0.371,0.188-0.82,0.039-1.008-0.332c-0.187-0.37-0.038-0.821,0.332-1.007
		C16.316,17.405,21.501,15.25,30,15.25c8.502,0,13.688,2.159,15.523,3.086c0.369,0.187,0.518,0.638,0.33,1.008
		C45.722,19.605,45.458,19.756,45.184,19.756z" class="svgShape color7d40f4-9 selectable"></path><g><path fill="#36034a" d="M14,40c10.667,5.333,21.333,5.333,32,0" class="svgShape colord2bbff-11 selectable"></path><path fill="#fcc222" d="M30,44.735c-5.458,0-10.916-1.354-16.335-4.064c-0.371-0.186-0.521-0.636-0.336-1.006
			c0.187-0.37,0.636-0.52,1.006-0.335c10.395,5.197,20.936,5.197,31.33,0c0.371-0.185,0.82-0.035,1.006,0.335
			c0.186,0.371,0.035,0.821-0.336,1.006C40.916,43.381,35.458,44.735,30,44.735z" class="svgShape color7d40f4-12 selectable"></path></g></svg></g></svg>