<svg id="SvgjsSvg1014" width="288" height="288" xmlns="http://www.w3.org/2000/svg" version="1.1" xmlns:xlink="http://www.w3.org/1999/xlink" xmlns:svgjs="http://svgjs.com/svgjs"><defs id="SvgjsDefs1015"></defs><g id="SvgjsG1016"><svg xmlns="http://www.w3.org/2000/svg" viewBox="0 0 140 140" width="288" height="288"><path fill="#36034a" d="M71.402 8.477c-18.663 0-35.302 8.184-46.575 21.16a61.26 61.26 0 0 0-8.718 13.109L36.841 58.58a36.35 36.35 0 0 1 13.11-17.974c6.005-4.376 13.411-6.961 21.451-6.961 8.682 0 16.522 3.077 22.683 8.11l17.924-17.898c-10.923-9.508-24.926-15.38-40.607-15.38z" class="svgShape colorff4743-0 selectable"></path><path fill="#8c79a5" d="M24.827 38.853a61.771 61.771 0 0 0-5.044 6.698L36.841 58.58a36.35 36.35 0 0 1 13.11-17.974c6.005-4.376 13.411-6.961 21.451-6.961 8.682 0 16.522 3.077 22.683 8.11l12.748-12.73C96.8 21.934 84.709 17.693 71.402 17.693c-18.663 0-35.301 8.184-46.575 21.16z" class="svgShape colore3443a-1 selectable"></path><path fill="#371e48" d="M34.996 70c0-.567.04-1.125.066-1.686a36.706 36.706 0 0 1 1.778-9.734L16.109 42.745c-3.812 7.732-6.025 16.392-6.271 25.569-.017.563-.049 1.122-.049 1.686 0 .566.032 1.126.049 1.69.246 9.166 2.459 17.822 6.261 25.545l20.725-15.863a36.54 36.54 0 0 1-1.761-9.682c-.027-.564-.067-1.121-.067-1.69z" class="svgShape colorf7b92b-2 selectable"></path><path fill="#371e48" d="m16.099 97.235 20.725-15.863a36.54 36.54 0 0 1-1.761-9.682c-.026-.564-.066-1.121-.066-1.69 0-.567.04-1.125.066-1.686a36.706 36.706 0 0 1 1.778-9.734L16.109 42.745" class="svgShape colorf7b92b-3 selectable"></path><path fill="#8c59c9" d="M91.863 100.977c-5.555 3.498-12.55 5.378-20.461 5.378a36.392 36.392 0 0 1-21.451-6.996c-6.065-4.416-10.708-10.653-13.11-17.938L16.109 97.255a61.345 61.345 0 0 0 8.704 13.091c11.272 12.987 27.92 21.178 46.589 21.178 5.645 0 11.193-.752 16.493-2.223 8.809-2.445 16.927-6.868 23.648-13.109l-19.68-15.215z" class="svgShape color59c96e-4 selectable"></path><path fill="#6e40a5" d="M16.109 97.255a61.345 61.345 0 0 0 8.704 13.091c11.272 12.987 27.92 21.178 46.589 21.178 5.645 0 11.193-.752 16.493-2.223 8.809-2.445 16.927-6.868 23.648-13.109l-19.681-15.215c-5.555 3.498-12.55 5.378-20.461 5.378a36.392 36.392 0 0 1-21.451-6.996" class="svgShape color40a557-5 selectable"></path><path fill="#fcc222" d="M128.811 58.813H71.402v23.772h33.045c-1.652 8.102-6.15 14.334-12.584 18.391l19.681 15.215c5.398-5.011 9.882-11.205 13.106-18.479 3.537-7.966 5.561-17.229 5.561-27.712 0-3.635-.559-7.55-1.4-11.187z" class="svgShape color0097e2-6 selectable"></path><path fill="#8e40ed" d="M111.544 116.191c5.398-5.011 9.882-11.205 13.106-18.479 3.537-7.966 5.561-17.229 5.561-27.712 0-3.635-.559-7.55-1.4-11.187h-3.693M71.402 68.314v14.272h33.045" class="svgShape color4087ed-7 selectable"></path><path fill="none" stroke="#371e48" stroke-linecap="round" stroke-linejoin="round" stroke-miterlimit="10" stroke-width="3" d="M35.062 71.69c-.026-.564-.066-1.121-.066-1.69 0-.567.04-1.125.066-1.686a36.706 36.706 0 0 1 1.778-9.734 36.35 36.35 0 0 1 13.11-17.974c6.005-4.376 13.411-6.961 21.451-6.961 8.682 0 16.522 3.077 22.683 8.11l17.924-17.898c-10.923-9.507-24.926-15.38-40.606-15.38-18.663 0-35.302 8.184-46.575 21.16a61.26 61.26 0 0 0-8.718 13.109c-3.812 7.732-6.025 16.392-6.271 25.569-.017.562-.049 1.121-.049 1.685 0 .566.032 1.126.049 1.69.246 9.166 2.459 17.822 6.261 25.545l20.725-15.863a36.54 36.54 0 0 1-1.762-9.682z" class="svgStroke colorStroke33363a-8 selectable"></path><path fill="none" stroke="#371e48" stroke-linecap="round" stroke-linejoin="round" stroke-miterlimit="10" stroke-width="3" d="M128.811 58.813H71.402v23.772h33.045c-1.652 8.102-6.15 14.334-12.584 18.391-5.555 3.498-12.55 5.378-20.461 5.378a36.392 36.392 0 0 1-21.451-6.996c-6.065-4.416-10.708-10.653-13.11-17.938L16.109 97.255a61.345 61.345 0 0 0 8.704 13.091c11.272 12.987 27.92 21.178 46.589 21.178 5.645 0 11.193-.752 16.493-2.223 8.809-2.445 16.927-6.868 23.648-13.109 5.398-5.011 9.882-11.205 13.106-18.479 3.537-7.966 5.561-17.229 5.561-27.712.001-3.636-.558-7.551-1.399-11.188zM36.841 58.58 16.109 42.745M91.863 100.977l19.681 15.214M78.902 82.586h33.045M31.457 131.523h6.525M50.818 131.523h18.821M43.854 131.523h1.218" class="svgStroke colorStroke33363a-9 selectable"></path></svg></g></svg>