<svg xmlns="http://www.w3.org/2000/svg" enable-background="new 0 0 512 512" viewBox="0 0 512 512" id="phone">
  <g fill="#391d5b" class="color000000 svgShape">
    <g fill="#391d5b" class="color000000 svgShape">
      <path fill="#fcc222" d="M490.123,400.87c-3.61,23.297-7.219,46.593-10.829,69.89
			c-2.876,22.127-36.754,35.813-73.613,25.349C217.103,442.811,69.214,294.923,15.916,106.344
			C5.452,69.485,19.138,35.606,41.265,32.731c23.297-3.61,46.593-7.219,69.89-10.829
			C141.402,217.266,294.759,370.623,490.123,400.87z" class="colorfbca43 svgShape"></path>
      <path fill="#f1f2f3" d="M405.697,496.105C217.112,442.818,69.206,294.913,15.92,106.327
			C5.828,70.884,18.124,38.196,38.791,33.235c-8.887,89.281,20.874,181.662,89.246,250.035
			c70.336,70.336,166.058,99.786,257.716,88.385c32.964,13.675,67.959,23.594,104.368,29.209
			c-3.617,23.319-7.199,46.604-10.85,69.889C476.412,492.901,442.553,506.576,405.697,496.105z" opacity=".4" class="colorffffff svgShape"></path>
      <path fill="#531aaa" d="M188.113,171.556c-6.466,3.814-12.931,7.628-19.397,11.442
			c-28.662-48.555-48.561-102.966-57.562-161.096c19.369-3.001,38.738-6.002,58.107-9.003c14.496-2.246,28.212,7.126,31.47,21.429
			c3.375,14.819,7.636,29.292,12.723,43.361C225.809,112.509,217.675,152.767,188.113,171.556z" class="color04b18b svgShape"></path>
      <path fill="#f1f2f3" d="M196.858,164.78c-2.652,2.446-5.58,4.754-8.749,6.751
			c-6.476,3.858-12.951,7.647-19.392,11.47c-28.658-48.567-48.567-102.99-57.557-161.098c19.358-3.031,38.716-5.993,58.108-8.99
			c11.953-1.825,23.388,4.237,28.865,14.398c-2.445,1.964-4.788,4.099-7.061,6.372c-34.755,34.755-34.721,91.072-0.034,125.758
			C192.932,161.336,194.861,163.127,196.858,164.78z" opacity=".4" class="colorffffff svgShape"></path>
      <path fill="#531aaa" d="M340.469,323.911c-3.814,6.466-7.628,12.931-11.442,19.397
			c48.555,28.662,102.966,48.562,161.096,57.562c3.002-19.376,5.436-35.084,9.002-58.099c2.246-14.496-7.124-28.22-21.427-31.478
			c-14.819-3.375-29.292-7.636-43.361-12.723C399.517,286.217,359.259,294.35,340.469,323.911z" class="color04b18b svgShape"></path>
      <path fill="#f1f2f3" d="M490.121,400.865c-58.108-8.99-112.531-28.899-161.098-57.557
			c3.823-6.441,7.612-12.917,11.47-19.392c0.62-0.964,1.24-1.929,1.894-2.859c31.207,30.587,81.29,30.38,112.255-0.586
			c3.858-3.858,7.234-7.991,10.127-12.4c4.271,1.171,8.577,2.239,12.917,3.203c14.295,3.273,23.698,17.016,21.425,31.483
			C495.563,365.8,493.118,381.472,490.121,400.865z" opacity=".4" class="colorffffff svgShape"></path>
      <path d="M479.047 305.358c-14.414-3.287-28.761-7.497-42.676-12.528-40.045-14.205-81.593-2.769-101.04 27.815-.038.057-.071.114-.105.171l-8.283 14.045c-21.398-13.031-41.779-27.859-60.87-44.456-2.55-2.207-6.389-1.931-8.591.599-2.207 2.538-1.936 6.384.599 8.591 65.75 57.162 144.791 92.763 225.08 106.301l-9.914 64.073c-2.753 21.181-38.103 28.16-65.909 20.306C221.923 437.825 74.188 290.074 21.794 104.672c-8.828-31.074 1.13-63.412 20.403-65.921l63.93-9.89c13.195 78.155 47.047 153.75 99.142 216.589 2.145 2.59 5.98 2.949 8.572.802 2.588-2.145 2.949-5.984.799-8.575-13.797-16.644-26.273-34.251-37.451-52.609l14.018-8.267c.062-.033.119-.069.176-.107 30.583-19.44 42.019-60.99 27.8-101.078-5.014-13.853-9.224-28.2-12.516-42.642C202.714 15.62 185.855 4.16 168.33 6.881c-.645.1-3.707.574-127.851 19.813-29.852 3.881-40.286 46.5-30.402 81.298C63.613 297.428 214.564 448.4 404.028 501.991c33.75 9.55 77.375-.21 81.274-30.305 19.305-124.519 19.742-127.337 19.842-127.982C507.86 326.151 496.401 309.309 479.047 305.358zM170.195 18.917c11.298-1.758 22.058 5.618 24.599 16.764 3.401 14.928 7.754 29.758 12.925 44.043 12.088 34.08 2.507 70.497-22.786 86.64l-13.958 8.231c-26.115-45.659-43.887-95.133-52.755-147.627L170.195 18.917zM345.659 327.093c16.15-25.291 52.556-34.874 86.607-22.798 14.343 5.188 29.175 9.54 44.079 12.937 11.146 2.538 18.51 13.346 16.764 24.608l-8.055 51.958c-50.644-8.559-100.477-25.793-147.613-52.766L345.659 327.093zM330.888 53.824c70.195 0 127.299 57.118 127.299 127.327 0 3.363 2.726 6.089 6.089 6.089 3.363 0 6.089-2.726 6.089-6.089 0-76.924-62.57-139.505-139.477-139.505-3.363 0-6.089 2.726-6.089 6.089S327.525 53.824 330.888 53.824z" fill="#391d5b" class="color000000 svgShape"></path>
      <path d="M330.888 106.651c41.063 0 74.472 33.421 74.472 74.5 0 3.363 2.726 6.089 6.089 6.089 3.363 0 6.089-2.726 6.089-6.089 0-47.794-38.87-86.678-86.65-86.678-3.363 0-6.089 2.726-6.089 6.089C324.799 103.925 327.525 106.651 330.888 106.651zM330.888 159.476c11.935 0 21.649 9.723 21.649 21.676 0 3.363 2.726 6.089 6.089 6.089 3.363 0 6.089-2.726 6.089-6.089 0-18.667-15.175-33.854-33.827-33.854-3.363 0-6.089 2.726-6.089 6.089C324.799 156.75 327.525 159.476 330.888 159.476z" fill="#391d5b" class="color000000 svgShape"></path>
    </g>
  </g>
</svg>
