<svg id="SvgjsSvg1001" width="288" height="288" xmlns="http://www.w3.org/2000/svg" version="1.1" xmlns:xlink="http://www.w3.org/1999/xlink" xmlns:svgjs="http://svgjs.com/svgjs"><defs id="SvgjsDefs1002"></defs><g id="SvgjsG1008"><svg xmlns="http://www.w3.org/2000/svg" enable-background="new 0 0 24 24" viewBox="0 0 24 24" width="288" height="288"><path fill="#796794" d="m2.067.5-1.567 4.001v15.998h5.749v3.001h3.139l3.134-3.002h4.705l6.274-5.997v-14.001zm18.433 12.688-3.606 3.4h-4.306l-3.088 2.912v-2.911h-6v-14.089h17z" class="svgShape color673ab7-0 selectable"></path><path d="m9.444 24h-3.07c-.414 0-.75-.336-.75-.75v-2.186h-4.874c-.414 0-.75-.336-.75-.75v-15.65c0-.094.018-.186.052-.273l1.533-3.914c.112-.288.39-.477.698-.477h20.967c.414 0 .75.336.75.75v13.697c0 .205-.084.401-.231.542l-6.138 5.867c-.14.134-.325.208-.519.208h-4.302l-2.848 2.728c-.139.133-.324.208-.518.208zm-2.32-1.5h2.02l2.848-2.728c.14-.134.325-.208.519-.208h4.302l5.688-5.438v-12.626h-19.706l-1.295 3.306v14.759h4.874c.414 0 .75.336.75.75z" fill="#36034a" class="svgShape color000000-1 selectable"></path><path d="m9.555 20.087c-.101 0-.201-.02-.297-.062-.275-.119-.453-.389-.453-.688v-2.098h-5.12c-.414 0-.75-.336-.75-.75v-13.782c0-.414.336-.75.75-.75h16.631c.414 0 .75.336.75.75v10.456c0 .207-.085.404-.235.546l-3.528 3.327c-.14.131-.323.204-.515.204h-3.914l-2.804 2.644c-.142.133-.328.203-.515.203zm-5.12-4.348h5.12c.414 0 .75.336.75.75v1.11l1.756-1.656c.14-.131.323-.204.515-.204h3.914l3.076-2.9v-9.382h-15.131z" fill="#36034a" class="svgShape color000000-2 selectable"></path><path d="M16.75 12c-.414 0-.75-.336-.75-.75v-4.5c0-.414.336-.75.75-.75s.75.336.75.75v4.5c0 .414-.336.75-.75.75zM11.782 12c-.414 0-.75-.336-.75-.75v-4.5c0-.414.336-.75.75-.75s.75.336.75.75v4.5c0 .414-.336.75-.75.75z" fill="#fcc222" class="svgShape color000000-3 selectable"></path></svg></g></svg>