<svg id="SvgjsSvg1079" width="288" height="288" xmlns="http://www.w3.org/2000/svg" version="1.1" xmlns:xlink="http://www.w3.org/1999/xlink" xmlns:svgjs="http://svgjs.com/svgjs"><defs id="SvgjsDefs1080"></defs><g id="SvgjsG1081"><svg xmlns="http://www.w3.org/2000/svg" viewBox="0 0 24 24" width="288" height="288"><g clip-path="url(#a)"><path fill="#fcc222" fill-rule="evenodd" d="M0.551193 0.779616C0.63524 0.608456 0.809321 0.5 1 0.5H6C6.15485 0.5 6.30096 0.571746 6.39565 0.694276L23.3956 22.6943C23.5122 22.8452 23.5329 23.0492 23.4488 23.2204C23.3648 23.3915 23.1907 23.5 23 23.5H18C17.8452 23.5 17.699 23.4283 17.6044 23.3057L0.604361 1.30572C0.487769 1.15484 0.467146 0.950777 0.551193 0.779616ZM2.01825 1.5L18.2455 22.5H21.9818L5.75448 1.5H2.01825Z" clip-rule="evenodd" class="svgShape color000000-1 selectable"></path><path fill="#fcc222" fill-rule="evenodd" d="M23.3536 0.646447C23.5488 0.841709 23.5488 1.15829 23.3536 1.35355L13.8536 10.8536C13.6583 11.0488 13.3417 11.0488 13.1464 10.8536C12.9512 10.6583 12.9512 10.3417 13.1464 10.1464L22.6464 0.646447C22.8417 0.451184 23.1583 0.451184 23.3536 0.646447Z" clip-rule="evenodd" class="svgShape color000000-2 selectable"></path><path fill="#36034a" fill-rule="evenodd" d="M23.3536 0.646447C23.5488 0.841709 23.5488 1.15829 23.3536 1.35355L13.8536 10.8536C13.6583 11.0488 13.3417 11.0488 13.1464 10.8536C12.9512 10.6583 12.9512 10.3417 13.1464 10.1464L22.6464 0.646447C22.8417 0.451184 23.1583 0.451184 23.3536 0.646447Z" clip-rule="evenodd" class="svgShape color000000-3 selectable"></path><path fill="#36034a" fill-rule="evenodd" d="M23.3536.646447C23.5488.841709 23.5488 1.15829 23.3536 1.35355L13.8536 10.8536C13.6583 11.0488 13.3417 11.0488 13.1464 10.8536 12.9512 10.6583 12.9512 10.3417 13.1464 10.1464L22.6464.646447C22.8417.451184 23.1583.451184 23.3536.646447zM.646446 23.3536C.451184 23.1583.451184 22.8417.646446 22.6464L10.1464 13.1464C10.3417 12.9512 10.6583 12.9512 10.8536 13.1464 11.0488 13.3417 11.0488 13.6583 10.8536 13.8536L1.35355 23.3536C1.15829 23.5488.841709 23.5488.646446 23.3536z" clip-rule="evenodd" class="svgShape color000000-4 selectable"></path></g><defs><clipPath id="a"><rect width="24" height="24" fill="#fbf5eb" class="svgShape colorffffff-7 selectable"></rect></clipPath></defs></svg></g></svg>