<svg id="SvgjsSvg1048" width="288" height="288" xmlns="http://www.w3.org/2000/svg" version="1.1" xmlns:xlink="http://www.w3.org/1999/xlink" xmlns:svgjs="http://svgjs.com/svgjs"><g id="SvgjsG1061" transform="matrix(0.01,0,0,0.01,142.56,142.56)" fill="#87ddfd"><circle id="SvgjsCircle1062" r="144" cx="144" cy="144"></circle><rect id="SvgjsRect1063" width="144" height="144" x="144" y="144" rx="0" ry="0"></rect></g><defs id="SvgjsDefs1049"></defs><g id="SvgjsG1050" transform="matrix(0.59,0,0,0.59,60.520184707641604,60.519690475463875)"><svg xmlns="http://www.w3.org/2000/svg" enable-background="new 0 0 60 60" viewBox="0 0 60 60" width="288" height="288"><path fill="#36034a" d="M51.019,50.182c-12.013,1.091-24.026,1.091-36.038,0c-2.561-0.233-4.671-2.157-5.05-4.7
		c-1.241-8.321-1.241-16.643,0-24.964c0.379-2.543,2.489-4.467,5.05-4.7c12.013-1.091,24.026-1.091,36.038,0
		c2.561,0.233,4.671,2.157,5.05,4.7c1.241,8.321,1.241,16.643,0,24.964C55.69,48.025,53.58,49.949,51.019,50.182z" class="svgShape colorffbdcc-1 selectable"></path><path fill="#fcc222" d="M30,49.496c-6.065,0-12.132-0.273-18.155-0.82c-3.287-0.299-5.918-2.755-6.397-5.973
		c-1.258-8.429-1.258-16.978,0-25.407c0.479-3.217,3.11-5.673,6.397-5.972c12.046-1.094,24.263-1.094,36.311,0
		c3.287,0.299,5.918,2.755,6.397,5.973c1.258,8.429,1.258,16.978,0,25.407c-0.479,3.217-3.11,5.673-6.397,5.972
		C42.132,49.223,36.065,49.496,30,49.496z M30,13.504c-5.976,0-11.95,0.27-17.884,0.809c-1.905,0.173-3.427,1.582-3.702,3.426
		c-1.213,8.137-1.213,16.387,0,24.522c0.275,1.845,1.797,3.254,3.702,3.427c11.867,1.078,23.9,1.078,35.768,0l0,0
		c1.905-0.173,3.427-1.582,3.702-3.426c1.213-8.137,1.213-16.387,0-24.522c-0.275-1.845-1.797-3.254-3.702-3.427
		C41.95,13.773,35.976,13.504,30,13.504z" class="svgShape coloreb2060-2 selectable"></path><path fill="#4a3879" d="M25.016,25.446v9.107c0,1.536,1.659,2.498,2.992,1.736l7.969-4.554c1.344-0.768,1.344-2.705,0-3.473
			l-7.969-4.554C26.675,22.948,25.016,23.911,25.016,25.446z" class="svgShape colorffffff-3 selectable"></path><path fill="#fcc222" d="M27.019,37.307c-1.518,0-2.753-1.235-2.753-2.753v-9.107c0-1.518,1.235-2.753,2.753-2.753
			c0.472,0,0.941,0.126,1.36,0.365l7.97,4.554c0.868,0.497,1.386,1.39,1.386,2.388c0,0.999-0.518,1.892-1.386,2.388l-7.969,4.554
			C27.963,37.18,27.492,37.307,27.019,37.307z M27.019,24.193c-0.603,0-1.253,0.479-1.253,1.253v9.107
			c0.001,1.05,1.134,1.507,1.869,1.086l7.97-4.555c0.395-0.226,0.63-0.631,0.63-1.085c0-0.453-0.235-0.859-0.631-1.086l-7.968-4.553
			C27.44,24.25,27.232,24.193,27.019,24.193z" class="svgShape coloreb2060-4 selectable"></path></svg></g></svg>